<?xml version="1.0" encoding="iso-8859-1"?>
<!-- Generator: Adobe Illustrator 19.0.0, SVG Export Plug-In . SVG Version: 6.00 Build 0)  -->
<svg xmlns="http://www.w3.org/2000/svg" xmlns:xlink="http://www.w3.org/1999/xlink" version="1.1" id="Capa_1" x="0px" y="0px" viewBox="0 0 78.009 78.009" style="enable-background:new 0 0 78.009 78.009;" xml:space="preserve" width="512px" height="512px">
<g>
	<path d="M70.095,63.308l7.914-37.998l-7.764-0.001v-2.728c0-4.61-3.75-8.361-8.36-8.361H33.103l-8.234-7.476H8.361   C3.751,6.744,0,10.495,0,15.105v47.797c0,4.61,3.751,8.361,8.36,8.361l49.474,0.002l4.051-0.002c0.045,0,0.088-0.012,0.133-0.014   C66.369,71.113,69.886,67.642,70.095,63.308z M6,62.902V15.106c0-1.302,1.059-2.361,2.361-2.361h14.19l8.234,7.476h31.099   c1.302,0,2.36,1.059,2.36,2.361v2.729H17.946l-7.764,39.954h-1.82C7.059,65.264,6,64.204,6,62.902z M16.294,65.264l6.598-33.954   h41.353h3.406h2.979l-6.45,30.977c-0.028,0.135-0.035,0.275-0.044,0.416c-0.005,0.066-0.021,0.133-0.021,0.197   c0,0.001,0,0.002,0,0.003c0,1.302-1.06,2.361-2.361,2.361H16.294z" fill="#FFFFFF"/>
</g>
<g>
</g>
<g>
</g>
<g>
</g>
<g>
</g>
<g>
</g>
<g>
</g>
<g>
</g>
<g>
</g>
<g>
</g>
<g>
</g>
<g>
</g>
<g>
</g>
<g>
</g>
<g>
</g>
<g>
</g>
</svg>
