<svg id="Layer_1" data-name="Layer 1" xmlns="http://www.w3.org/2000/svg" xmlns:xlink="http://www.w3.org/1999/xlink" viewBox="0 0 425.2 170.08"><defs><style>.cls-1{fill:none;}.cls-2{fill:#fff;}.cls-3{clip-path:url(#clip-path);}</style><clipPath id="clip-path"><rect class="cls-1" x="47.72" y="3.88" width="329.7" height="162.33"/></clipPath></defs><title>ltu_logo_eng</title><path class="cls-2" d="M176.45,107.47h-11.3V107H166c1.16,0,1.59-.38,1.59-1.67V94.13c0-1.34-.4-1.9-2-1.9h-0.35V91.75h7.46v0.48h-0.93c-1.64,0-2.07.18-2.07,1.74v11.65a0.82,0.82,0,0,0,1,.93h3.71c1.49,0,1.95-.58,3.54-2.78h0.46l-1.95,3.69h0Z"/><path class="cls-2" d="M200.83,91.75v0.48c-1.69,0-2.3.71-2.3,2.33v6.82c0,3.13-2,6.49-7.48,6.49-4.83,0-7.3-2.75-7.3-6.37V94.13c0-1.62-.46-1.87-2.18-1.9V91.75h6.5v0.48h-0.23c-1.39,0-2,.38-2,1.84v7c0,3.41,2,5.46,5.76,5.46,2.86,0,5.76-1.19,5.76-5.48V95.19c0-2.43-.38-2.86-2.48-3V91.75h5.94Z"/><path class="cls-2" d="M215,107.47h-11.3V107h0.83c1.16,0,1.59-.38,1.59-1.67V94.13c0-1.34-.41-1.9-2-1.9h-0.35V91.75h7.46v0.48h-0.94c-1.64,0-2.07.18-2.07,1.74v11.65a0.82,0.82,0,0,0,1,.93h3.72c1.49,0,1.95-.58,3.54-2.78h0.45L215,107.47h0Z"/><path class="cls-2" d="M231.36,101.79h-0.48c-0.2-1.8-.68-2-1.72-2h-4.27v5.38c0,1.16.43,1.39,1.36,1.39h3.89c1.77,0,2.3-.68,2.93-2.86h0.45l-0.4,3.76H219.7V107h0.71c2,0,2.37-.56,2.37-2.07V94.26c0-1.42-.33-2-2-2h-0.56V91.75h12.13l0.2,3.51h-0.45c-0.33-2.15-1-2.6-1.87-2.6h-5.33v6.22h4.52c0.91,0,1.34-.43,1.47-1.9h0.48v4.8h0Z"/><path class="cls-2" d="M245.71,93.5l-2.15,5.89h4.37l-2.22-5.89h0Zm-2.58,7-1.47,4a7.17,7.17,0,0,0-.5,1.59c0,0.68.66,0.94,2,.94h0.4v0.48h-5.84V107c1.64,0,1.92-.3,2.73-2.5l4.6-12.56-0.23-.56h2.2l5.28,14a2,2,0,0,0,2.3,1.59v0.48h-6.95V107h0.66c1.44,0,2-.15,2-0.86a2.82,2.82,0,0,0-.28-1l-1.69-4.6h-5.23Z"/><path class="cls-2" d="M67,120.91v0.48c-1.69,0-2.3.71-2.3,2.33v6.82c0,3.13-2,6.49-7.48,6.49-4.83,0-7.31-2.75-7.31-6.37v-7.38c0-1.62-.45-1.87-2.17-1.9v-0.48h6.5v0.48H54c-1.39,0-2,.38-2,1.85v7c0,3.41,2,5.46,5.76,5.46,2.86,0,5.76-1.19,5.76-5.48v-5.89c0-2.42-.38-2.86-2.48-3v-0.48H67Z"/><path class="cls-2" d="M87.48,136.81l-13.09-13.7V134c0,1.82.4,2.2,2.55,2.2v0.48H71.08v-0.48h0.1c1.57,0,2.07-.53,2.07-1.69V122a3.71,3.71,0,0,0-2.12-.63v-0.48h4L87,133.33V123.27c0-1.54-.46-1.82-2.48-1.87v-0.48h5.91v0.48c-1.9,0-2.3.33-2.3,1.31v14.1H87.48Z"/><path class="cls-2" d="M101.69,136.64H95.54v-0.48c1.57-.08,1.9-0.48,1.9-2.17V123.22c0-1.36-.48-1.74-1.9-1.82v-0.48h6.14v0.48c-1.59,0-2.15.36-2.15,2v10.72c0,1.49.41,2,2.15,2v0.48h0Z"/><path class="cls-2" d="M114.92,137l-5.48-13.67c-0.63-1.59-.94-2-2.48-2v-0.48h7v0.48c-2.33.05-2.88,0.58-2.4,1.74l4.55,11.32,4-10.44a4.89,4.89,0,0,0,.43-1.57c0-.76-0.63-1.06-2.35-1.06v-0.48H124v0.48c-1.32,0-2,.61-2.6,2.17L116.19,137h-1.26Z"/><path class="cls-2" d="M139,130.95h-0.48c-0.2-1.8-.68-2-1.72-2h-4.27v5.38c0,1.16.43,1.39,1.36,1.39h3.89c1.77,0,2.3-.68,2.93-2.85h0.46l-0.4,3.76H127.36v-0.48h0.71c2,0,2.38-.56,2.38-2.07V123.42c0-1.42-.33-2-2-2h-0.55v-0.48H140l0.2,3.51h-0.46c-0.33-2.15-1-2.6-1.87-2.6h-5.33V128h4.52c0.91,0,1.34-.43,1.47-1.9H139v4.8h0Z"/><path class="cls-2" d="M150.87,129.51a10.92,10.92,0,0,0,1.57.05c2.81,0,4.65-1.19,4.65-4.22,0-2.35-1.06-4.17-5-4.17a10.25,10.25,0,0,0-1.26.05v8.29h0Zm0,4.75c0,1.52.61,1.9,2,1.9h0.58v0.48h-7.15v-0.48h0.43c1.49,0,2-.41,2-2.1V123.42c0-1.57-.43-2-1.89-2h-0.56v-0.48c0.61,0,2.15-.1,3.18-0.15s1.54-.08,3.19-0.08c4.68,0,6.77,1.92,6.77,4.5a4.31,4.31,0,0,1-3.36,4.09,30.28,30.28,0,0,1,2.88,2.63l2,2a7.59,7.59,0,0,0,5,2.55v0.45c-4.42.2-5.56-.76-7.81-3l-1.67-1.67a18.67,18.67,0,0,0-2.6-2.25c-0.63,0-1,.05-1.72.05s-0.88,0-1.29-.05v4.27h0Z"/><path class="cls-2" d="M168.2,132.79a4.38,4.38,0,0,0,4.27,3.57c1.69,0,3.49-1,3.49-3,0-3.64-8.11-4.75-8.11-9.18,0-2.1,1.92-3.66,4.5-3.66,2.12,0,2.55.63,3.44,0.63a0.49,0.49,0,0,0,.46-0.25h0.4l0.43,3.21h-0.43a4.47,4.47,0,0,0-4.07-3c-1.67,0-2.83,1-2.83,2.38,0,3.59,8.11,4.55,8.11,9.2,0,2.48-2.2,4.32-5.16,4.32a20.7,20.7,0,0,1-3.51-.68,0.61,0.61,0,0,0-.51.28h-0.43l-0.53-3.84h0.48Z"/><path class="cls-2" d="M190.31,136.64h-6.14v-0.48c1.57-.08,1.9-0.48,1.9-2.17V123.22c0-1.36-.48-1.74-1.9-1.82v-0.48h6.14v0.48c-1.59,0-2.15.36-2.15,2v10.72c0,1.49.4,2,2.15,2v0.48h0Z"/><path class="cls-2" d="M203.58,134.31c0,1.37.45,1.85,2,1.85h0.94v0.48h-8v-0.48h0.93c1.54,0,2-.48,2-1.85V121.83h-4.4c-1,0-1.47.58-1.85,2.8h-0.46l0.41-4.09h0.48a0.38,0.38,0,0,0,.28.3,1.68,1.68,0,0,0,.51.07h12.16a0.69,0.69,0,0,0,.78-0.38h0.48l0.4,4.09h-0.45c-0.38-2.22-.84-2.8-1.85-2.8h-4.4v12.48h0Z"/><path class="cls-2" d="M226,123.22c0.81-1.39.33-1.82-1.29-1.82v-0.48h5.71v0.48a3.5,3.5,0,0,0-3.16,2l-4.2,7.1v3.79c0,1.34.48,1.87,2,1.87h0.33v0.48h-7v-0.48H219c1.57,0,2-.58,2-1.82v-3.56l-4.5-7c-1.24-1.95-1.82-2.3-3.46-2.35v-0.48h6.72v0.48c-2,0-2.1.48-1.34,1.64l4,6.24,3.56-6.07h0Z"/><path class="cls-2" d="M95,150.33c-4.45,0-6.22,4.15-6.22,7.18,0,4.73,3.21,8.06,7.28,8.06s6.09-3.64,6.09-7.23c0-4.7-3-8-7.15-8h0Zm0.53,15.87c-5,0-9.12-3.18-9.12-7.91,0-5,3.87-8.59,9.25-8.59,4.78,0,8.87,3.26,8.87,7.81a8.7,8.7,0,0,1-9,8.69h0Z"/><path class="cls-2" d="M119.88,159.76h-0.43c-0.05-1.47-.58-1.92-1.8-1.92H113v5.54c0,1.41.3,1.95,2.2,1.95v0.48H109v-0.48c1.57-.1,1.84-0.43,1.84-2.48v-9.91c0-1.62-.13-2.35-1.89-2.38v-0.48h11.32v3h-0.43c0-1.47-.53-2.07-2.1-2.07H113v5.94h5c0.93,0,1.39-.53,1.47-1.62h0.43v4.45h0Z"/><path class="cls-2" d="M141,163.47c0,1.37.46,1.85,2,1.85h0.94v0.48h-8v-0.48h0.93c1.54,0,2-.48,2-1.85V151h-4.4c-1,0-1.47.58-1.84,2.8h-0.45l0.4-4.09h0.48a0.38,0.38,0,0,0,.28.3,1.66,1.66,0,0,0,.51.07H146a0.69,0.69,0,0,0,.78-0.38h0.48l0.4,4.09h-0.45c-0.38-2.22-.83-2.8-1.84-2.8H141v12.48h0Z"/><path class="cls-2" d="M164.24,160.11h-0.48c-0.2-1.8-.68-2-1.72-2h-4.27v5.38c0,1.16.43,1.39,1.36,1.39H163c1.77,0,2.3-.68,2.93-2.86h0.46L166,165.8H152.59v-0.48h0.71c2,0,2.38-.56,2.38-2.07V152.58c0-1.42-.33-2-2-2H153.1v-0.48h12.13l0.2,3.51H165c-0.33-2.15-1-2.6-1.87-2.6h-5.33v6.22h4.52c0.91,0,1.34-.43,1.47-1.9h0.48v4.8h0Z"/><path class="cls-2" d="M186.36,154.22a5.9,5.9,0,0,0-5.76-3.89c-4.22,0-6.85,3.06-6.85,7.31,0,4.57,3.29,7.94,7.13,7.94a6.7,6.7,0,0,0,6.17-3.74h0.48a17.28,17.28,0,0,1-1.62,3.69c-1.62-.23-2.73.68-5.71,0.68-5.13,0-8.82-3.39-8.82-8.06,0-4.9,3.79-8.44,9.07-8.44,3.18,0,4.55,1,5.33,1a0.52,0.52,0,0,0,.46-0.15h0.38l0.23,3.67h-0.48Z"/><path class="cls-2" d="M195.5,158.29v4.8c0,1.64.33,2.22,2,2.22h0.08v0.48h-6.34v-0.48h0.15c1.49,0,2-.4,2-1.85V152.35c0-1.31-.43-1.69-1.82-1.8v-0.48h6v0.48c-1.79,0-2.1.48-2.1,2.43v4.4h9.91v-5c0-1.34-.43-1.85-2-1.85h-0.48v-0.48h6.5v0.48c-1.52.05-1.92,0.51-1.92,2.07v10.49c0,1.79.51,2.2,2,2.2h0.25v0.48h-7.15v-0.48h0.78c1.64,0,2-.58,2-1.9v-5.13H195.5Z"/><path class="cls-2" d="M230.71,166l-13.09-13.7v10.84c0,1.82.4,2.2,2.55,2.2v0.48h-5.86v-0.48h0.1c1.57,0,2.07-.53,2.07-1.69V151.19a3.7,3.7,0,0,0-2.12-.63v-0.48h4l11.91,12.41V152.43c0-1.54-.46-1.82-2.48-1.87v-0.48h5.91v0.48c-1.9,0-2.3.33-2.3,1.31V166h-0.66Z"/><path class="cls-2" d="M245.55,150.33c-4.45,0-6.22,4.15-6.22,7.18,0,4.73,3.21,8.06,7.28,8.06s6.09-3.64,6.09-7.23c0-4.7-3-8-7.15-8h0Zm0.53,15.87c-5,0-9.13-3.18-9.13-7.91,0-5,3.87-8.59,9.25-8.59,4.78,0,8.87,3.26,8.87,7.81a8.7,8.7,0,0,1-9,8.69h0Z"/><path class="cls-2" d="M269.23,165.8h-11.3v-0.48h0.83c1.16,0,1.59-.38,1.59-1.67v-11.2c0-1.34-.4-1.9-2-1.9H258v-0.48h7.45v0.48h-0.93c-1.64,0-2.07.18-2.07,1.74V164a0.82,0.82,0,0,0,1,.93h3.72c1.49,0,1.95-.58,3.54-2.78h0.46l-1.95,3.69h0Z"/><path class="cls-2" d="M282.82,150.33c-4.45,0-6.22,4.15-6.22,7.18,0,4.73,3.21,8.06,7.28,8.06s6.09-3.64,6.09-7.23c0-4.7-3-8-7.15-8h0Zm0.53,15.87c-5,0-9.13-3.18-9.13-7.91,0-5,3.87-8.59,9.25-8.59,4.78,0,8.87,3.26,8.87,7.81a8.7,8.7,0,0,1-9,8.69h0Z"/><path class="cls-2" d="M311,164.61a17,17,0,0,1-6.77,1.59,7.8,7.8,0,0,1-8.11-8A8.42,8.42,0,0,1,305,149.7a21.46,21.46,0,0,1,5,.86,0.89,0.89,0,0,0,.58-0.18h0.35v4.1h-0.51a4.82,4.82,0,0,0-5.18-4.15c-4.45,0-6.72,3.69-6.72,7.76,0,5.18,3.64,7.48,6.55,7.48a8.53,8.53,0,0,0,3.87-1v-3.18c0-1.44-.51-1.92-2-1.92H306v-0.45h6.82v0.45c-1.26.08-1.77,0.51-1.77,1.59v3.51h0Z"/><g class="cls-3"><path class="cls-2" d="M328.37,152.38c0.81-1.39.33-1.82-1.29-1.82v-0.48h5.71v0.48a3.5,3.5,0,0,0-3.16,2l-4.2,7.1v3.79c0,1.34.48,1.87,2,1.87h0.33v0.48h-7v-0.48h0.48c1.57,0,2-.58,2-1.82v-3.56l-4.5-7c-1.24-1.95-1.82-2.3-3.46-2.35v-0.48h6.72v0.48c-2,0-2.1.48-1.34,1.64l4,6.24,3.56-6.07h0Z"/><path class="cls-2" d="M377.48,91.49c-13.12,13.79-17.13,31.84-10.57,43,0,0-33.77,15.28-65.71,1.35-33.63-14.66-61.26,5.8-61.26,5.8l0-8.25c28.39-6.37,24-15.12,24.69-45.81V43.25c0-30.89-.52-31.13-24.33-32.83V3.9s13.59,0,36.34,0,34.94,0,34.94,0v6.52c-24.38,1.7-24.89,1.94-24.89,32.83,0,0-.13,23.21,0,44.95s0.42,30.21,11.64,38.92c8.11,6.3,16.92,7.83,25.54,7.94s22-3.95,28.81-11.21a42.14,42.14,0,0,0,9-14.17,177,177,0,0,0,7.21-19.22l6.88,0.8,1.73,0.24h0Z"/></g><path class="cls-2" d="M244.37,87.5a1.69,1.69,0,1,0,1.69-1.69,1.7,1.7,0,0,0-1.69,1.69h0Zm4.11,0a2.41,2.41,0,1,1-2.41-2.41,2.42,2.42,0,0,1,2.41,2.41h0Z"/></svg>