<?xml version="1.0" encoding="iso-8859-1"?>
<!-- Generator: Adobe Illustrator 19.0.0, SVG Export Plug-In . SVG Version: 6.00 Build 0)  -->
<svg xmlns="http://www.w3.org/2000/svg" xmlns:xlink="http://www.w3.org/1999/xlink" version="1.1" id="Capa_1" x="0px" y="0px" viewBox="0 0 70.18 70.18" style="enable-background:new 0 0 70.18 70.18;" xml:space="preserve" width="512px" height="512px">
<g>
	<path d="M35.089,0L0.126,14.88l0.087,2.074C0.305,19.127,2.825,70.18,35.09,70.18c32.264,0,34.785-51.052,34.876-53.226   l0.088-2.074L35.089,0z M35.09,64.179L35.09,64.179c-23.325,0-27.945-36.32-28.735-45.43L35.09,6.52l28.736,12.23   C63.043,27.86,58.45,64.179,35.09,64.179z" fill="#FFFFFF"/>
	<polygon points="24.152,32.767 18.893,37.393 31.511,51.457 31.536,51.432 31.553,51.457 54.181,28.461 50.142,23.152    31.751,38.287  " fill="#FFFFFF"/>
</g>
<g>
</g>
<g>
</g>
<g>
</g>
<g>
</g>
<g>
</g>
<g>
</g>
<g>
</g>
<g>
</g>
<g>
</g>
<g>
</g>
<g>
</g>
<g>
</g>
<g>
</g>
<g>
</g>
<g>
</g>
</svg>
